<svg width="176" height="866" viewBox="0 0 176 866" fill="none" xmlns="http://www.w3.org/2000/svg">
<mask id="mask0_115221_51520" style="mask-type:alpha" maskUnits="userSpaceOnUse" x="0" y="0" width="176" height="866">
<rect width="176" height="866" fill="#D9D9D9"/>
</mask>
<g mask="url(#mask0_115221_51520)">
<g filter="url(#filter0_f_115221_51520)">
<path d="M87.3188 412.318C63.3058 412.318 45.2959 407.038 33.2894 396.478C21.7631 385.918 16 369.599 16 347.519C16 324.959 21.7631 308.4 33.2894 297.84C45.296 287.28 63.3058 282 87.3189 282C111.812 282 130.062 287.28 142.069 297.84C154.075 308.4 160.079 324.959 160.079 347.519C160.079 390.718 135.825 412.318 87.3188 412.318Z" fill="url(#paint0_radial_115221_51520)"/>
</g>
<g filter="url(#filter1_f_115221_51520)">
<path d="M83.2855 157.603C66.0176 157.603 53.0667 153.734 44.4328 145.994C36.1443 138.255 32 126.293 32 110.111C32 93.5764 36.1443 81.4395 44.4328 73.7C53.0668 65.9604 66.0176 62.0907 83.2855 62.0907C100.899 62.0907 114.022 65.9604 122.656 73.7C131.29 81.4395 135.607 93.5764 135.607 110.111C135.607 141.773 118.166 157.603 83.2855 157.603Z" fill="url(#paint1_radial_115221_51520)"/>
</g>
<g filter="url(#filter2_f_115221_51520)">
<path d="M84.7145 160C101.982 160 114.933 163.87 123.567 171.609C131.856 179.349 136 191.31 136 207.492C136 224.027 131.856 236.164 123.567 243.903C114.933 251.643 101.982 255.513 84.7145 255.513C67.1013 255.513 53.9778 251.643 45.3439 243.903C36.7099 236.164 32.393 224.027 32.393 207.492C32.393 175.831 49.8335 160 84.7145 160Z" fill="url(#paint2_radial_115221_51520)"/>
</g>
<g filter="url(#filter3_f_115221_51520)">
<path d="M87.2855 378.58C70.0176 378.58 57.0667 374.711 48.4328 366.971C40.1443 359.232 36 347.271 36 331.088C36 314.554 40.1443 302.417 48.4328 294.677C57.0668 286.938 70.0176 283.068 87.2855 283.068C104.899 283.068 118.022 286.938 126.656 294.677C135.29 302.417 139.607 314.554 139.607 331.088C139.607 362.75 122.166 378.58 87.2855 378.58Z" fill="url(#paint3_radial_115221_51520)"/>
</g>
<g filter="url(#filter4_f_115221_51520)">
<path d="M84.7145 20C101.982 20 114.933 23.837 123.567 31.511C131.856 39.1849 136 51.0446 136 67.0901C136 83.4844 131.856 95.5185 123.567 103.192C114.933 110.866 101.982 114.703 84.7145 114.703C67.1013 114.703 53.9778 110.866 45.3439 103.192C36.7099 95.5185 32.393 83.4844 32.393 67.0901C32.393 35.6967 49.8335 20 84.7145 20Z" fill="url(#paint4_radial_115221_51520)"/>
</g>
<g filter="url(#filter5_f_115221_51520)">
<path d="M88.6811 418.285C112.694 418.285 130.704 423.598 142.711 434.223C154.237 444.849 160 461.27 160 483.487C160 506.187 154.237 522.849 142.711 533.475C130.704 544.1 112.694 549.413 88.6811 549.413C64.1878 549.413 45.9378 544.1 33.9313 533.475C21.9247 522.849 15.9215 506.187 15.9215 483.487C15.9215 440.019 40.1747 418.285 88.6811 418.285Z" fill="url(#paint5_radial_115221_51520)"/>
</g>
<g filter="url(#filter6_f_115221_51520)">
<path d="M87.3927 756.875C64.3648 756.875 47.094 751.775 35.58 741.575C24.5267 731.376 19 715.612 19 694.286C19 672.495 24.5267 656.5 35.5801 646.3C47.094 636.1 64.3649 631.001 87.3927 631.001C110.881 631.001 128.382 636.1 139.896 646.3C151.41 656.5 157.167 672.495 157.167 694.286C157.167 736.012 133.909 756.875 87.3927 756.875Z" fill="url(#paint6_radial_115221_51520)"/>
</g>
<g filter="url(#filter7_f_115221_51520)">
<path d="M89.3927 715.875C66.3648 715.875 49.094 710.775 37.58 700.575C26.5267 690.376 21 674.612 21 653.285C21 631.495 26.5267 615.5 37.5801 605.3C49.094 595.1 66.3649 590 89.3927 590.001C112.881 590.001 130.382 595.1 141.896 605.3C153.41 615.5 159.167 631.495 159.167 653.286C159.167 695.012 135.909 715.875 89.3927 715.875Z" fill="url(#paint7_radial_115221_51520)"/>
</g>
<g filter="url(#filter8_f_115221_51520)">
<path d="M88.4856 754.187C101.843 754.187 111.862 757.136 118.541 763.033C124.952 768.929 128.158 778.042 128.158 790.372C128.158 802.97 124.952 812.217 118.541 818.114C111.862 824.01 101.843 826.959 88.4856 826.959C74.8606 826.959 64.7087 824.01 58.0298 818.114C51.3509 812.217 48.0114 802.97 48.0114 790.372C48.0114 766.249 61.5028 754.187 88.4856 754.187Z" fill="url(#paint8_radial_115221_51520)"/>
</g>
</g>
<defs>
<filter id="filter0_f_115221_51520" x="-20.63" y="245.37" width="217.338" height="203.578" filterUnits="userSpaceOnUse" color-interpolation-filters="sRGB">
<feFlood flood-opacity="0" result="BackgroundImageFix"/>
<feBlend mode="normal" in="SourceGraphic" in2="BackgroundImageFix" result="shape"/>
<feGaussianBlur stdDeviation="0" result="effect1_foregroundBlur_115221_51520"/>
</filter>
<filter id="filter1_f_115221_51520" x="-4.62996" y="25.4607" width="176.867" height="168.773" filterUnits="userSpaceOnUse" color-interpolation-filters="sRGB">
<feFlood flood-opacity="0" result="BackgroundImageFix"/>
<feBlend mode="normal" in="SourceGraphic" in2="BackgroundImageFix" result="shape"/>
<feGaussianBlur stdDeviation="0" result="effect1_foregroundBlur_115221_51520"/>
</filter>
<filter id="filter2_f_115221_51520" x="-4.23738" y="123.37" width="176.867" height="168.773" filterUnits="userSpaceOnUse" color-interpolation-filters="sRGB">
<feFlood flood-opacity="0" result="BackgroundImageFix"/>
<feBlend mode="normal" in="SourceGraphic" in2="BackgroundImageFix" result="shape"/>
<feGaussianBlur stdDeviation="0" result="effect1_foregroundBlur_115221_51520"/>
</filter>
<filter id="filter3_f_115221_51520" x="-0.629959" y="246.438" width="176.867" height="168.773" filterUnits="userSpaceOnUse" color-interpolation-filters="sRGB">
<feFlood flood-opacity="0" result="BackgroundImageFix"/>
<feBlend mode="normal" in="SourceGraphic" in2="BackgroundImageFix" result="shape"/>
<feGaussianBlur stdDeviation="0" result="effect1_foregroundBlur_115221_51520"/>
</filter>
<filter id="filter4_f_115221_51520" x="-4.23738" y="-16.6299" width="176.867" height="167.963" filterUnits="userSpaceOnUse" color-interpolation-filters="sRGB">
<feFlood flood-opacity="0" result="BackgroundImageFix"/>
<feBlend mode="normal" in="SourceGraphic" in2="BackgroundImageFix" result="shape"/>
<feGaussianBlur stdDeviation="0" result="effect1_foregroundBlur_115221_51520"/>
</filter>
<filter id="filter5_f_115221_51520" x="-17.4885" y="384.875" width="210.899" height="197.948" filterUnits="userSpaceOnUse" color-interpolation-filters="sRGB">
<feFlood flood-opacity="0" result="BackgroundImageFix"/>
<feBlend mode="normal" in="SourceGraphic" in2="BackgroundImageFix" result="shape"/>
<feGaussianBlur stdDeviation="0" result="effect1_foregroundBlur_115221_51520"/>
</filter>
<filter id="filter6_f_115221_51520" x="-17.63" y="594.371" width="211.427" height="199.135" filterUnits="userSpaceOnUse" color-interpolation-filters="sRGB">
<feFlood flood-opacity="0" result="BackgroundImageFix"/>
<feBlend mode="normal" in="SourceGraphic" in2="BackgroundImageFix" result="shape"/>
<feGaussianBlur stdDeviation="0" result="effect1_foregroundBlur_115221_51520"/>
</filter>
<filter id="filter7_f_115221_51520" x="-15.63" y="553.371" width="211.427" height="199.135" filterUnits="userSpaceOnUse" color-interpolation-filters="sRGB">
<feFlood flood-opacity="0" result="BackgroundImageFix"/>
<feBlend mode="normal" in="SourceGraphic" in2="BackgroundImageFix" result="shape"/>
<feGaussianBlur stdDeviation="0" result="effect1_foregroundBlur_115221_51520"/>
</filter>
<filter id="filter8_f_115221_51520" x="11.3818" y="717.557" width="153.406" height="146.031" filterUnits="userSpaceOnUse" color-interpolation-filters="sRGB">
<feFlood flood-opacity="0" result="BackgroundImageFix"/>
<feBlend mode="normal" in="SourceGraphic" in2="BackgroundImageFix" result="shape"/>
<feGaussianBlur stdDeviation="0" result="effect1_foregroundBlur_115221_51520"/>
</filter>
<radialGradient id="paint0_radial_115221_51520" cx="0" cy="0" r="1" gradientUnits="userSpaceOnUse" gradientTransform="translate(88.0392 412.318) rotate(-90) scale(104.923 169.602)">
<stop stop-color="#0154F8"/>
<stop offset="0.663943" stop-color="#EDEC80"/>
<stop offset="0.898706" stop-color="#EDEC80" stop-opacity="0"/>
</radialGradient>
<radialGradient id="paint1_radial_115221_51520" cx="0" cy="0" r="1" gradientUnits="userSpaceOnUse" gradientTransform="translate(83.8035 157.603) rotate(-90) scale(76.9 121.961)">
<stop stop-color="#0154F8"/>
<stop offset="0.663943" stop-color="#EDEC80"/>
<stop offset="0.898706" stop-color="#EDEC80" stop-opacity="0"/>
</radialGradient>
<radialGradient id="paint2_radial_115221_51520" cx="0" cy="0" r="1" gradientUnits="userSpaceOnUse" gradientTransform="translate(84.1965 160) rotate(90) scale(76.9 121.961)">
<stop stop-color="#0154F8"/>
<stop offset="0.663943" stop-color="#EDEC80"/>
<stop offset="0.898706" stop-color="#EDEC80" stop-opacity="0"/>
</radialGradient>
<radialGradient id="paint3_radial_115221_51520" cx="0" cy="0" r="1" gradientUnits="userSpaceOnUse" gradientTransform="translate(87.8035 378.58) rotate(-90) scale(76.9 121.961)">
<stop stop-color="#0154F8"/>
<stop offset="0.663943" stop-color="#EDEC80"/>
<stop offset="0.898706" stop-color="#EDEC80" stop-opacity="0"/>
</radialGradient>
<radialGradient id="paint4_radial_115221_51520" cx="0" cy="0" r="1" gradientUnits="userSpaceOnUse" gradientTransform="translate(84.1965 20) rotate(90) scale(76.2483 121.961)">
<stop stop-color="#EB7DC6"/>
<stop offset="0.663943" stop-color="#EDEC80"/>
<stop offset="0.898706" stop-color="#EDEC80" stop-opacity="0"/>
</radialGradient>
<radialGradient id="paint5_radial_115221_51520" cx="0" cy="0" r="1" gradientUnits="userSpaceOnUse" gradientTransform="translate(87.9608 418.285) rotate(90) scale(175.523 285.19)">
<stop stop-color="#0154F8"/>
<stop offset="0.413462" stop-color="#EB7DC6"/>
<stop offset="0.711538" stop-color="#EB7DC6" stop-opacity="0"/>
</radialGradient>
<radialGradient id="paint6_radial_115221_51520" cx="0" cy="0" r="1" gradientUnits="userSpaceOnUse" gradientTransform="translate(88.0836 756.875) rotate(-90) scale(101.345 162.644)">
<stop stop-color="#FF6300"/>
<stop offset="0.735577" stop-color="#F6CFFB"/>
<stop offset="1" stop-color="#F6CFFB" stop-opacity="0"/>
</radialGradient>
<radialGradient id="paint7_radial_115221_51520" cx="0" cy="0" r="1" gradientUnits="userSpaceOnUse" gradientTransform="translate(90.0836 715.875) rotate(-90) scale(101.345 162.644)">
<stop stop-color="#FF6300"/>
<stop offset="0.735577" stop-color="#EB7DC6" stop-opacity="0.74"/>
<stop offset="1" stop-color="#EB7DC6" stop-opacity="0.2"/>
</radialGradient>
<radialGradient id="paint8_radial_115221_51520" cx="0" cy="0" r="1" gradientUnits="userSpaceOnUse" gradientTransform="translate(88.0848 754.187) rotate(90) scale(58.5902 94.3448)">
<stop stop-color="#FF6300"/>
<stop offset="0.605769" stop-color="#EDEC80"/>
<stop offset="0.908654" stop-color="#EDEC80" stop-opacity="0"/>
</radialGradient>
</defs>
</svg>
