<svg width="30" height="26" viewBox="0 0 30 26" fill="none" xmlns="http://www.w3.org/2000/svg">
  <path
    d="M0.75 0.75H2.29376C2.49462 0.75 2.67599 0.870198 2.75425 1.05519L5.54605 7.65425C5.8591 8.39421 6.58455 8.875 7.388 8.875H13.7515C14.5791 8.875 15.3212 8.36534 15.6182 7.59296L17.3638 3.05449C17.4898 2.72699 17.248 2.375 16.8971 2.375H7.3125"
    transform="translate(6 7.3)"
    stroke="#001137"
    stroke-width="1.5"
    stroke-linecap="round"
    stroke-linejoin="round"
  />
  <path
    d="M0 1.08333C0 0.485025 0.559644 0 1.25 0C1.94036 0 2.5 0.485025 2.5 1.08333C2.5 1.68164 1.94036 2.16667 1.25 2.16667C0.559644 2.16667 0 1.68164 0 1.08333Z"
    transform="translate(10.25 17.33)"
    fill="#001137"
  />
  <path
    d="M0 1.08333C0 0.485025 0.559644 0 1.25 0C1.94036 0 2.5 0.485025 2.5 1.08333C2.5 1.68164 1.94036 2.16667 1.25 2.16667C0.559644 2.16667 0 1.68164 0 1.08333Z"
    transform="translate(17.75 17.33)"
    fill="#001137"
  />
</svg>
