<svg width="30" height="26" viewBox="0 0 30 26" fill="none" xmlns="http://www.w3.org/2000/svg">
  <path
    d="M5.25082 7.61372C5.24431 7.8106 5.27664 8.00683 5.34596 8.19121C5.41528 8.37559 5.52024 8.54451 5.65485 8.68833C5.78946 8.83215 5.95107 8.94804 6.13047 9.0294C6.30986 9.11076 6.50353 9.15599 6.7004 9.1625C6.89728 9.16901 7.09351 9.13669 7.27789 9.06736C7.46227 8.99804 7.63119 8.89308 7.77501 8.75847C7.91883 8.62387 8.03472 8.46225 8.11608 8.28285C8.19744 8.10346 8.24267 7.90979 8.24918 7.71292C8.25569 7.51604 8.22336 7.31981 8.15404 7.13543C8.08472 6.95105 7.97976 6.78213 7.84515 6.63831C7.71054 6.49449 7.54893 6.3786 7.36953 6.29724C7.19014 6.21588 6.99647 6.17065 6.7996 6.16414C6.60272 6.15763 6.40649 6.18996 6.22211 6.25928C6.03773 6.3286 5.86881 6.43356 5.72499 6.56817C5.58117 6.70278 5.46528 6.86439 5.38392 7.04379C5.30256 7.22319 5.25733 7.41685 5.25082 7.61372Z"
    transform="translate(8 5.5)"
    stroke="#001137"
    stroke-width="1.5"
    stroke-linejoin="round"
  />
  <path
    d="M5.71577 1.03817C6.35173 0.653943 7.14827 0.653944 7.78423 1.03817L11.7842 3.45484C12.3837 3.817 12.75 4.46632 12.75 5.16667V10.16C12.75 10.8603 12.3837 11.5096 11.7842 11.8718L7.78423 14.2885C7.14827 14.6727 6.35173 14.6727 5.71577 14.2885L1.71577 11.8718C1.11633 11.5096 0.75 10.8603 0.75 10.16V5.16667C0.75 4.46632 1.11633 3.817 1.71577 3.45484L5.71577 1.03817Z"
    transform="translate(8 5.5)"
    stroke="#001137"
    stroke-width="1.5"
    stroke-linejoin="round"
  />
</svg>
