<svg width="30" height="26" viewBox="0 0 30 26" fill="none" xmlns="http://www.w3.org/2000/svg">
  <path
    d="M0.75123 2.92561C0.741461 3.22092 0.789953 3.51526 0.893938 3.79184C0.997923 4.06841 1.15537 4.32179 1.35727 4.53752C1.55918 4.75324 1.80161 4.92709 2.0707 5.04912C2.3398 5.17116 2.63029 5.239 2.92561 5.24877C3.22092 5.25854 3.51526 5.21005 3.79184 5.10606C4.06841 5.00208 4.32179 4.84464 4.53752 4.64273C4.75324 4.44082 4.92709 4.19839 5.04912 3.9293C5.17116 3.6602 5.239 3.36971 5.24877 3.07439C5.25854 2.77908 5.21005 2.48474 5.10606 2.20816C5.00208 1.93159 4.84464 1.67821 4.64273 1.46248C4.44082 1.24676 4.19839 1.07291 3.9293 0.950877C3.6602 0.82884 3.36971 0.761 3.07439 0.75123C2.77908 0.741461 2.48474 0.789953 2.20816 0.893938C1.93159 0.997923 1.67821 1.15537 1.46248 1.35727C1.24676 1.55918 1.07291 1.80161 0.950877 2.0707C0.82884 2.3398 0.761 2.63029 0.75123 2.92561Z"
    transform="translate(12 4.5)"
    stroke="#001137"
    stroke-width="1.5"
    stroke-linecap="round"
    stroke-linejoin="round"
  />
  <path
    d="M9.7502 3.75C9.38154 2.862 8.75724 2.10301 7.95625 1.56901C7.15525 1.03502 6.21354 0.75 5.2502 0.75C4.28685 0.75 3.34514 1.03502 2.54414 1.56901C1.74315 2.10301 1.11885 2.862 0.750196 3.75"
    transform="translate(9.75 16.25)"
    stroke="#001137"
    stroke-width="1.5"
    stroke-linecap="round"
    stroke-linejoin="round"
  />
</svg>
