<svg width="171" height="55" viewBox="0 0 171 55" fill="none" xmlns="http://www.w3.org/2000/svg">
<path d="M160.723 30.0857C163.926 30.0857 166.328 30.7513 167.929 32.0824C169.53 33.4874 170.331 35.6319 170.331 38.5159C170.331 41.4739 169.53 43.6184 167.929 44.9495C166.328 46.3545 163.926 47.057 160.723 47.057C157.444 47.057 155.004 46.3545 153.403 44.9495C151.725 43.6184 150.887 41.4739 150.887 38.5159C150.887 32.8958 154.165 30.0857 160.723 30.0857Z" fill="url(#paint0_radial_118213_10573)"/>
<path d="M0 53.0339V0.0708067H12.7027V53.0339H0ZM2.34635 53.0339V42.2808H29.7744V53.0339H2.34635Z" fill="#001137"/>
<path d="M33.2263 53.0339V0.0708067H46.1717V53.0339H33.2263Z" fill="#001137"/>
<path d="M53.2576 53.0339V0.0708067H65.9602V23.6635C67.7402 22.3795 69.3584 20.9083 70.8148 19.2499C72.2711 17.5914 73.5657 15.7725 74.6984 13.7931C75.8311 11.8136 76.775 9.70046 77.5302 7.45354C78.2853 5.15312 78.8247 2.69221 79.1484 0.0708067H93.3883C92.9028 2.85271 92.1477 5.55436 91.1228 8.17577C90.098 10.7437 88.8035 13.1511 87.2392 15.398C85.675 17.6449 83.895 19.6778 81.8993 21.4968C79.9574 23.3157 77.8268 24.8137 75.5075 25.9906V26.8733C77.6111 26.8733 79.499 27.1141 81.1711 27.5956C82.8971 28.0235 84.4074 28.719 85.702 29.682C86.9965 30.645 88.0753 31.9557 88.9383 33.6141C89.8013 35.219 90.4756 37.1717 90.961 39.4721L93.7928 53.0339H80.1193L78.4202 42.9228C77.9887 40.1944 77.4223 38.0812 76.7211 36.5832C76.0738 35.0318 75.1569 33.9351 73.9702 33.2931C72.7835 32.6511 71.1654 32.3301 69.1157 32.3301H65.9602V53.0339H53.2576Z" fill="#001137"/>
<path d="M119.595 54.3226C115.331 54.3226 111.566 53.7278 108.301 52.5382C105.103 51.2826 102.371 49.5313 100.106 47.2844C97.9071 44.9714 96.2413 42.1958 95.1086 38.9576C93.9759 35.7194 93.4095 32.0847 93.4095 28.0534C93.4095 24.0222 93.9759 20.3214 95.1086 16.951C96.2413 13.5146 97.8738 10.5407 100.006 8.02943C102.138 5.45208 104.77 3.46951 107.902 2.08171C111.033 0.693902 114.631 0 118.696 0C122.494 0 125.859 0.627815 128.79 1.88345C131.789 3.13908 134.287 5.02253 136.286 7.53379C138.352 9.97896 139.851 13.0189 140.784 16.6536C141.717 20.2223 142.05 24.3526 141.783 29.0447L101.205 29.4412V22.304L134.287 22.0066L130.49 26.0709C130.823 22.3701 130.523 19.3301 129.59 16.951C128.657 14.5058 127.225 12.6885 125.292 11.4989C123.427 10.2433 121.261 9.61549 118.796 9.61549C115.997 9.61549 113.565 10.3424 111.5 11.7963C109.434 13.2502 107.835 15.3319 106.702 18.0414C105.636 20.751 105.103 24.0222 105.103 27.8552C105.103 33.6047 106.369 37.9333 108.901 40.8411C111.5 43.7488 115.098 45.2027 119.695 45.2027C121.694 45.2027 123.393 44.9384 124.793 44.4097C126.258 43.881 127.458 43.1871 128.391 42.328C129.324 41.4689 130.056 40.4776 130.589 39.3541C131.123 38.2307 131.522 37.0742 131.789 35.8846L142.483 37.9663C142.017 40.4115 141.217 42.6254 140.084 44.608C138.952 46.5905 137.419 48.3088 135.487 49.7626C133.621 51.2165 131.389 52.34 128.79 53.133C126.192 53.9261 123.127 54.3226 119.595 54.3226Z" fill="#001137"/>
<path d="M160.498 23.9145C157.296 23.9145 154.894 23.249 153.293 21.9179C151.691 20.5129 150.891 18.3683 150.891 15.4843C150.891 12.5264 151.691 10.3819 153.293 9.05078C154.894 7.64575 157.296 6.94324 160.498 6.94324C163.777 6.94324 166.218 7.64575 167.819 9.05078C169.496 10.3819 170.335 12.5264 170.335 15.4843C170.335 21.1045 167.056 23.9145 160.498 23.9145Z" fill="url(#paint1_radial_118213_10573)"/>
<defs>
<radialGradient id="paint0_radial_118213_10573" cx="0" cy="0" r="1" gradientUnits="userSpaceOnUse" gradientTransform="translate(160.609 28.609) rotate(90) scale(20.2222 17.6095)">
<stop stop-color="#D8E4D6"/>
<stop offset="0.807692" stop-color="#0154F8"/>
<stop offset="0.966346" stop-color="#00297B"/>
</radialGradient>
<radialGradient id="paint1_radial_118213_10573" cx="0" cy="0" r="1" gradientUnits="userSpaceOnUse" gradientTransform="translate(160.613 25.3913) rotate(-90) scale(20.2222 17.6095)">
<stop offset="0.0961538" stop-color="#D8E4D6"/>
<stop offset="0.807692" stop-color="#EB7DC6"/>
<stop offset="0.966346" stop-color="#B14D8F"/>
</radialGradient>
</defs>
</svg>
