<svg width="285" height="54" viewBox="0 0 285 54" fill="none" xmlns="http://www.w3.org/2000/svg">
<path d="M156.871 29.3645C159.996 29.3645 162.341 30.0141 163.904 31.3133C165.467 32.6846 166.248 34.7777 166.248 37.5926C166.248 40.4797 165.467 42.5728 163.904 43.8719C162.341 45.2433 159.996 45.929 156.871 45.929C153.67 45.929 151.289 45.2433 149.726 43.8719C148.088 42.5728 147.27 40.4797 147.27 37.5926C147.27 32.1072 150.47 29.3645 156.871 29.3645Z" fill="url(#paint0_radial_118213_10548)"/>
<path d="M0 51.7625V0.0691093H12.3982V51.7625H0ZM2.29011 51.7625V41.2672H29.0607V51.7625H2.29011Z" fill="#001137"/>
<path d="M32.4298 51.7625V0.0691093H45.0649V51.7625H32.4298Z" fill="#001137"/>
<path d="M51.9808 51.7625V0.0691093H64.379V23.0962C66.1163 21.843 67.6957 20.4071 69.1171 18.7884C70.5386 17.1697 71.8021 15.3944 72.9077 13.4624C74.0132 11.5304 74.9345 9.46791 75.6716 7.27486C76.4086 5.02959 76.9351 2.62767 77.251 0.0691093H91.1495C90.6757 2.78432 89.9387 5.42121 88.9384 7.97977C87.9381 10.4861 86.6746 12.8358 85.1479 15.0289C83.6211 17.2219 81.8838 19.2061 79.9359 20.9814C78.0407 22.7568 75.9611 24.2188 73.6973 25.3676V26.2291C75.7505 26.2291 77.5932 26.4641 79.2252 26.934C80.9099 27.3517 82.384 28.0306 83.6475 28.9704C84.911 29.9103 85.9639 31.1896 86.8062 32.8083C87.6486 34.3747 88.3066 36.2806 88.7805 38.5259L91.5444 51.7625H78.1986L76.5402 41.8938C76.1191 39.2308 75.5663 37.1683 74.8819 35.7062C74.2501 34.192 73.3552 33.1216 72.1969 32.495C71.0387 31.8684 69.4593 31.5551 67.4588 31.5551H64.379V51.7625H51.9808Z" fill="#001137"/>
<path d="M116.728 53.0203C112.566 53.0203 108.892 52.4398 105.705 51.2788C102.584 50.0532 99.9173 48.3439 97.7061 46.1509C95.56 43.8933 93.9342 41.1843 92.8286 38.0237C91.723 34.8631 91.1702 31.3155 91.1702 27.3809C91.1702 23.4463 91.723 19.8342 92.8286 16.5447C93.9342 13.1906 95.5275 10.288 97.6086 7.83694C99.6896 5.32138 102.258 3.38633 105.315 2.0318C108.372 0.677268 111.883 0 115.85 0C119.557 0 122.842 0.612765 125.703 1.83829C128.63 3.06383 131.068 4.90212 133.019 7.35318C135.035 9.73974 136.499 12.7068 137.409 16.2544C138.319 19.7375 138.645 23.7688 138.385 28.3485L98.7792 28.7355V21.7693L131.068 21.479L127.361 25.4459C127.687 21.8338 127.394 18.8667 126.483 16.5447C125.573 14.1581 124.175 12.3843 122.289 11.2233C120.468 9.99775 118.354 9.38498 115.948 9.38498C113.217 9.38498 110.843 10.0945 108.827 11.5135C106.811 12.9326 105.25 14.9644 104.144 17.6089C103.104 20.2535 102.584 23.4463 102.584 27.1874C102.584 32.7991 103.819 37.0239 106.291 39.862C108.827 42.7001 112.339 44.1191 116.826 44.1191C118.777 44.1191 120.435 43.8611 121.801 43.3451C123.232 42.8291 124.402 42.1518 125.313 41.3133C126.223 40.4748 126.939 39.5072 127.459 38.4107C127.979 37.3142 128.369 36.1854 128.63 35.0244L139.067 37.0562C138.612 39.4427 137.832 41.6035 136.726 43.5386C135.621 45.4736 134.125 47.1507 132.239 48.5697C130.418 49.9887 128.239 51.0853 125.703 51.8593C123.167 52.6333 120.175 53.0203 116.728 53.0203Z" fill="#001137"/>
<path d="M176.12 51.7655V0.0720505H194.362L203.68 38.2155H204.391L213.63 0.0720505H231.477V51.7655H220.027L220.658 12.1338H219.711L209.287 51.7655H198.231L187.886 12.1338H187.017L187.649 51.7655H176.12Z" fill="#001137"/>
<path d="M262.661 53.0233C258.499 53.0233 254.824 52.4427 251.638 51.2817C248.516 50.0562 245.85 48.3469 243.639 46.1538C241.493 43.8963 239.867 41.1872 238.761 38.0266C237.656 34.8661 237.103 31.3185 237.103 27.3839C237.103 23.4493 237.656 19.8372 238.761 16.5476C239.867 13.1935 241.46 10.2909 243.541 7.83988C245.622 5.32432 248.191 3.38928 251.248 2.03474C254.304 0.680209 257.816 0.00294113 261.783 0.00294113C265.49 0.00294113 268.774 0.615706 271.636 1.84124C274.562 3.06677 277.001 4.90506 278.952 7.35612C280.968 9.74268 282.431 12.7098 283.342 16.2573C284.252 19.7404 284.577 23.7718 284.317 28.3514L244.712 28.7384V21.7722L277.001 21.482L273.294 25.4488C273.619 21.8367 273.326 18.8697 272.416 16.5476C271.506 14.161 270.107 12.3872 268.221 11.2262C266.4 10.0007 264.287 9.38792 261.881 9.38792C259.149 9.38792 256.775 10.0974 254.759 11.5165C252.743 12.9355 251.183 14.9673 250.077 17.6119C249.037 20.2564 248.516 23.4493 248.516 27.1904C248.516 32.802 249.752 37.0269 252.223 39.8649C254.759 42.703 258.271 44.122 262.759 44.122C264.71 44.122 266.368 43.864 267.734 43.348C269.164 42.832 270.335 42.1547 271.245 41.3162C272.156 40.4777 272.871 39.5102 273.392 38.4136C273.912 37.3171 274.302 36.1883 274.562 35.0273L285 37.0591C284.545 39.4457 283.764 41.6065 282.659 43.5415C281.553 45.4766 280.057 47.1536 278.171 48.5726C276.351 49.9917 274.172 51.0882 271.636 51.8622C269.099 52.6362 266.108 53.0233 262.661 53.0233Z" fill="#001137"/>
<path d="M156.651 23.3412C153.525 23.3412 151.181 22.6916 149.618 21.3924C148.055 20.0211 147.273 17.928 147.273 15.1131C147.273 12.226 148.055 10.1329 149.618 8.83375C151.181 7.46241 153.525 6.77673 156.651 6.77674C159.851 6.77674 162.233 7.46241 163.796 8.83375C165.433 10.1329 166.252 12.226 166.252 15.1131C166.252 20.5985 163.052 23.3412 156.651 23.3412Z" fill="url(#paint1_radial_118213_10548)"/>
<defs>
<radialGradient id="paint0_radial_118213_10548" cx="0" cy="0" r="1" gradientUnits="userSpaceOnUse" gradientTransform="translate(156.759 27.9232) rotate(90) scale(19.7374 17.1874)">
<stop stop-color="#D8E4D6"/>
<stop offset="0.807692" stop-color="#0154F8"/>
<stop offset="0.966346" stop-color="#00297B"/>
</radialGradient>
<radialGradient id="paint1_radial_118213_10548" cx="0" cy="0" r="1" gradientUnits="userSpaceOnUse" gradientTransform="translate(156.763 24.7825) rotate(-90) scale(19.7374 17.1873)">
<stop offset="0.0961538" stop-color="#D8E4D6"/>
<stop offset="0.807692" stop-color="#EB7DC6"/>
<stop offset="0.966346" stop-color="#B14D8F"/>
</radialGradient>
</defs>
</svg>
