<svg width="87" height="16" viewBox="0 0 87 16" fill="none" xmlns="http://www.w3.org/2000/svg">
<path d="M0 15.6196V0.020854H3.74632V15.6196H0ZM0.691995 15.6196V12.4526H8.78118V15.6196H0.691995Z" fill="#001137"/>
<path d="M9.79922 15.6196V0.020854H13.6171V15.6196H9.79922Z" fill="#001137"/>
<path d="M15.7069 15.6196V0.020854H19.4532V6.96937C19.9782 6.59122 20.4554 6.15793 20.8849 5.66948C21.3144 5.18104 21.6962 4.64532 22.0303 4.06234C22.3644 3.47936 22.6428 2.85698 22.8655 2.19522C23.0882 1.5177 23.2473 0.792912 23.3427 0.020854H27.5424C27.3992 0.84018 27.1765 1.63587 26.8743 2.40793C26.572 3.16423 26.1902 3.87326 25.7289 4.53503C25.2676 5.19679 24.7426 5.79553 24.154 6.33124C23.5813 6.86696 22.953 7.30813 22.2689 7.65477V7.91475C22.8893 7.91475 23.4461 7.98565 23.9393 8.12746C24.4483 8.25351 24.8937 8.45834 25.2755 8.74196C25.6573 9.02557 25.9755 9.4116 26.23 9.90004C26.4845 10.3727 26.6834 10.9478 26.8265 11.6254L27.6617 15.6196H23.629L23.1279 12.6416C23.0007 11.8381 22.8337 11.2157 22.6269 10.7745C22.436 10.3176 22.1655 9.99458 21.8155 9.8055C21.4656 9.61643 20.9883 9.52189 20.3838 9.52189H19.4532V15.6196H15.7069Z" fill="#001137"/>
<path d="M35.9596 15.9991C34.702 15.9991 33.5917 15.8239 32.6288 15.4736C31.6856 15.1038 30.8799 14.588 30.2117 13.9262C29.5633 13.245 29.072 12.4275 28.7379 11.4738C28.4039 10.5201 28.2368 9.4496 28.2368 8.26232C28.2368 7.07503 28.4039 5.98507 28.7379 4.99242C29.072 3.98031 29.5534 3.10445 30.1823 2.36483C30.8111 1.60575 31.5873 1.02184 32.5109 0.613105C33.4345 0.204368 34.4956 0 35.6944 0C36.8145 0 37.8068 0.184905 38.6715 0.554714C39.5558 0.924523 40.2927 1.47924 40.8822 2.21886C41.4914 2.93901 41.9335 3.83434 42.2087 4.90484C42.4838 5.95587 42.582 7.17235 42.5034 8.55427L30.536 8.67105V6.56898L40.2927 6.48139L39.1726 7.67841C39.2708 6.58844 39.1824 5.69311 38.9073 4.99242C38.6322 4.27227 38.2097 3.73702 37.6398 3.38667C37.0896 3.01686 36.4509 2.83196 35.7238 2.83196C34.8985 2.83196 34.1812 3.04606 33.5721 3.47426C32.9629 3.90246 32.4913 4.51556 32.1572 5.31357C31.8428 6.11158 31.6856 7.07503 31.6856 8.20393C31.6856 9.89726 32.0589 11.1721 32.8057 12.0285C33.5721 12.8849 34.6332 13.3131 35.9891 13.3131C36.5787 13.3131 37.0798 13.2353 37.4924 13.0796C37.9247 12.9239 38.2785 12.7195 38.5536 12.4665C38.8287 12.2134 39.0448 11.9215 39.2021 11.5906C39.3593 11.2597 39.4772 10.9191 39.5558 10.5688L42.7098 11.1819C42.5722 11.902 42.3364 12.554 42.0023 13.138C41.6683 13.7219 41.2163 14.2279 40.6464 14.6561C40.0962 15.0843 39.4379 15.4152 38.6715 15.6488C37.9051 15.8823 37.0011 15.9991 35.9596 15.9991Z" fill="#001137"/>
<path d="M47.7798 13.9262C46.9544 13.9262 46.3354 13.7511 45.9228 13.4007C45.5101 13.0309 45.3038 12.4665 45.3038 11.7074C45.3038 10.9288 45.5101 10.3644 45.9228 10.014C46.3354 9.64423 46.9544 9.45933 47.7798 9.45933C48.6248 9.45933 49.2536 9.64423 49.6663 10.014C50.0986 10.3644 50.3148 10.9288 50.3148 11.7074C50.3148 13.1866 49.4698 13.9262 47.7798 13.9262Z" fill="#001137"/>
<path d="M53.2176 15.6205V0.0217415H58.7297L61.5454 11.5317H61.7601L64.552 0.0217415H69.9448V15.6205H66.4848L66.6757 3.66144H66.3893L63.2396 15.6205H59.8989L56.773 3.66144H56.5105L56.7014 15.6205H53.2176Z" fill="#001137"/>
<path d="M79.3675 16C78.1099 16 76.9996 15.8248 76.0367 15.4745C75.0935 15.1047 74.2878 14.5889 73.6196 13.9271C72.9711 13.2459 72.4799 12.4284 72.1458 11.4747C71.8117 10.521 71.6447 9.45049 71.6447 8.2632C71.6447 7.07592 71.8117 5.98596 72.1458 4.99331C72.4799 3.9812 72.9613 3.10534 73.5901 2.36572C74.219 1.60664 74.9952 1.02273 75.9188 0.613993C76.8424 0.205256 77.9035 0.000887498 79.1022 0.000887498C80.2224 0.000887498 81.2147 0.185792 82.0794 0.555601C82.9637 0.925411 83.7006 1.48012 84.2901 2.21974C84.8993 2.9399 85.3414 3.83523 85.6165 4.90573C85.8917 5.95676 85.9899 7.17324 85.9113 8.55516L73.9439 8.67194V6.56987L83.7006 6.48228L82.5805 7.67929C82.6787 6.58933 82.5903 5.694 82.3152 4.99331C82.0401 4.27316 81.6176 3.73791 81.0477 3.38756C80.4975 3.01775 79.8588 2.83285 79.1317 2.83285C78.3064 2.83285 77.5891 3.04695 76.9799 3.47515C76.3708 3.90335 75.8991 4.51645 75.5651 5.31446C75.2507 6.11247 75.0935 7.07592 75.0935 8.20481C75.0935 9.89815 75.4668 11.173 76.2136 12.0294C76.9799 12.8858 78.0411 13.314 79.397 13.314C79.9865 13.314 80.4876 13.2362 80.9003 13.0805C81.3326 12.9247 81.6864 12.7204 81.9615 12.4674C82.2366 12.2143 82.4527 11.9224 82.6099 11.5915C82.7672 11.2606 82.8851 10.92 82.9637 10.5696L86.1176 11.1827C85.9801 11.9029 85.7443 12.5549 85.4102 13.1388C85.0761 13.7228 84.6242 14.2288 84.0543 14.657C83.5041 15.0852 82.8458 15.4161 82.0794 15.6497C81.313 15.8832 80.409 16 79.3675 16Z" fill="#001137"/>
<path d="M47.7798 7.20871C46.9544 7.20871 46.3354 7.03354 45.9228 6.68319C45.5101 6.31338 45.3038 5.74894 45.3038 4.98986C45.3038 4.21131 45.5101 3.64686 45.9228 3.29652C46.3354 2.92671 46.9544 2.74181 47.7798 2.74181C48.6248 2.74181 49.2536 2.92671 49.6663 3.29652C50.0986 3.64686 50.3148 4.21131 50.3148 4.98986C50.3148 6.46909 49.4698 7.20871 47.7798 7.20871Z" fill="#001137"/>
</svg>
