<svg width="50" height="16" viewBox="0 0 50 16" fill="none" xmlns="http://www.w3.org/2000/svg">
<path d="M0 15.6196V0.020854H3.7412V15.6196H0ZM0.691049 15.6196V12.4526H8.76918V15.6196H0.691049Z" fill="#001137"/>
<path d="M9.78583 15.6196V0.020854H13.5985V15.6196H9.78583Z" fill="#001137"/>
<path d="M15.6854 15.6196V0.020854H19.4266V6.96937C19.9509 6.59122 20.4275 6.15793 20.8564 5.66948C21.2853 5.18104 21.6666 4.64532 22.0002 4.06234C22.3338 3.47936 22.6118 2.85698 22.8342 2.19522C23.0566 1.5177 23.2155 0.792912 23.3108 0.020854H27.5048C27.3618 0.84018 27.1394 1.63587 26.8376 2.40793C26.5357 3.16423 26.1544 3.87326 25.6937 4.53503C25.233 5.19679 24.7088 5.79553 24.121 6.33124C23.5491 6.86696 22.9216 7.30814 22.2385 7.65477V7.91475C22.8581 7.91475 23.4141 7.98565 23.9065 8.12746C24.4149 8.25351 24.8597 8.45834 25.241 8.74196C25.6223 9.02557 25.94 9.4116 26.1942 9.90004C26.4483 10.3727 26.6469 10.9478 26.7899 11.6254L27.6239 15.6196H23.5968L23.0964 12.6416C22.9693 11.8381 22.8025 11.2157 22.5959 10.7745C22.4053 10.3176 22.1352 9.99458 21.7857 9.8055C21.4362 9.61643 20.9597 9.52189 20.356 9.52189H19.4266V15.6196H15.6854Z" fill="#001137"/>
<path d="M35.2233 15.9991C33.9674 15.9991 32.8586 15.8239 31.897 15.4736C30.9551 15.1038 30.1505 14.588 29.4832 13.9262C28.8357 13.245 28.3451 12.4275 28.0114 11.4738C27.6778 10.5201 27.511 9.4496 27.511 8.26232C27.511 7.07503 27.6778 5.98507 28.0114 4.99242C28.3451 3.98031 28.8258 3.10445 29.4538 2.36483C30.0818 1.60575 30.8569 1.02184 31.7793 0.613105C32.7016 0.204368 33.7613 0 34.9584 0C36.077 0 37.068 0.184905 37.9314 0.554714C38.8145 0.924523 39.5504 1.47924 40.1391 2.21886C40.7475 2.93901 41.189 3.83434 41.4638 4.90484C41.7385 5.95587 41.8366 7.17235 41.7581 8.55427L29.807 8.67105V6.56898L39.5504 6.48139L38.4318 7.67841C38.53 6.58844 38.4417 5.69312 38.1669 4.99242C37.8922 4.27227 37.4703 3.73702 36.9012 3.38667C36.3517 3.01686 35.7139 2.83196 34.9878 2.83196C34.1636 2.83196 33.4473 3.04606 32.839 3.47426C32.2306 3.90246 31.7596 4.51556 31.426 5.31357C31.1121 6.11158 30.9551 7.07504 30.9551 8.20393C30.9551 9.89726 31.3279 11.1721 32.0736 12.0285C32.839 12.8849 33.8987 13.3131 35.2527 13.3131C35.8415 13.3131 36.3419 13.2353 36.754 13.0796C37.1857 12.9239 37.539 12.7195 37.8137 12.4665C38.0884 12.2134 38.3043 11.9215 38.4613 11.5906C38.6183 11.2597 38.736 10.9191 38.8145 10.5688L41.9642 11.1819C41.8268 11.902 41.5913 12.554 41.2577 13.138C40.9241 13.7219 40.4728 14.2279 39.9037 14.6561C39.3542 15.0843 38.6968 15.4152 37.9314 15.6488C37.1661 15.8823 36.2634 15.9991 35.2233 15.9991Z" fill="#001137"/>
<path d="M47.2304 14.004C46.3939 14.004 45.7666 13.8262 45.3483 13.4707C44.9301 13.0954 44.721 12.5225 44.721 11.7522C44.721 10.9621 44.9301 10.3892 45.3483 10.0337C45.7666 9.65835 46.3939 9.4707 47.2304 9.4707C48.0868 9.4707 48.7241 9.65835 49.1423 10.0337C49.5805 10.3892 49.7995 10.9621 49.7995 11.7522C49.7995 13.2534 48.9432 14.004 47.2304 14.004Z" fill="#001137"/>
<path d="M47.2304 7.18661C46.3939 7.18661 45.7666 7.00883 45.3483 6.65328C44.9301 6.27797 44.721 5.70513 44.721 4.93476C44.721 4.14464 44.9301 3.5718 45.3483 3.21624C45.7666 2.84094 46.3939 2.65328 47.2304 2.65328C48.0868 2.65328 48.7241 2.84094 49.1423 3.21624C49.5805 3.5718 49.7995 4.14464 49.7995 4.93476C49.7995 6.43599 48.9432 7.18661 47.2304 7.18661Z" fill="#001137"/>
</svg>
