<svg width="110" height="54" viewBox="0 0 110 54" fill="none" xmlns="http://www.w3.org/2000/svg">
<path d="M109.884 37.4721C107.426 47.5866 99.6882 53.7849 86.9036 53.7849C82.506 53.7849 78.6233 53.197 75.2555 52.0166C71.9573 50.7714 69.1369 49.0401 66.799 46.8135C64.5306 44.5221 62.8142 41.7771 61.6453 38.5692C60.4763 35.3613 59.8918 31.7645 59.8918 27.7743C59.8918 23.784 60.4763 20.1178 61.6453 16.7803C62.8142 13.3779 64.4981 10.4339 66.6969 7.94807C68.8957 5.39747 71.6094 3.43475 74.8427 2.05992C78.0713 0.685098 81.787 0 85.9758 0C89.8956 0 93.3655 0.620292 96.39 1.8655C99.4841 3.11072 102.059 4.97159 104.123 7.46202C106.252 9.88301 107.801 12.8919 108.762 16.4933C109.722 20.0252 110.07 24.1173 109.792 28.7649L67.9309 29.1583V22.0898L102.059 21.7935L98.1388 25.8162C98.4821 22.15 98.1713 19.1411 97.211 16.7849C96.2508 14.3639 94.771 12.5632 92.7763 11.3874C90.8512 10.1422 88.62 9.52194 86.0733 9.52194C83.1879 9.52194 80.6783 10.2441 78.5491 11.6791C76.4199 13.1187 74.7685 15.1786 73.5995 17.8635C72.5001 20.5483 71.9481 23.784 71.9481 27.5798C71.9481 33.2736 73.2562 37.5601 75.8679 40.4393C78.5491 43.3186 82.2601 44.7582 87.001 44.7582C94.9001 44.7582 97.5895 38.8053 98.358 35.3474L109.88 37.4767L109.884 37.4721Z" fill="#001137"/>
<path d="M0 52.8593V0.921387H18.2166L27.5221 39.2452H28.2318L37.4584 0.921387H55.2807V52.8593H43.8461L44.4769 13.0402H43.5306L33.1211 52.8593H22.0808L11.7501 13.0402H10.8827L11.5135 52.8593H0Z" fill="#001137"/>
</svg>
