<svg width="170" height="54" viewBox="0 0 170 54" fill="none" xmlns="http://www.w3.org/2000/svg">
<path d="M140.666 37.4721C138.208 47.5866 130.47 53.7849 117.685 53.7849C113.288 53.7849 109.405 53.197 106.037 52.0166C102.739 50.7714 99.9187 49.0401 97.5808 46.8135C95.3124 44.5221 93.596 41.7771 92.4271 38.5692C91.2581 35.3613 90.6736 31.7645 90.6736 27.7743C90.6736 23.784 91.2581 20.1178 92.4271 16.7803C93.596 13.3779 95.2799 10.4339 97.4787 7.94807C99.6775 5.39747 102.391 3.43475 105.624 2.05992C108.853 0.685098 112.569 0 116.758 0C120.677 0 124.147 0.620292 127.172 1.8655C130.266 3.11072 132.84 4.97159 134.905 7.46202C137.034 9.88301 138.583 12.8919 139.543 16.4933C140.504 20.0252 140.852 24.1173 140.573 28.7649L98.7127 29.1583V22.0898L132.84 21.7935L128.921 25.8162C129.264 22.15 128.953 19.1411 127.993 16.7849C127.033 14.3639 125.553 12.5632 123.558 11.3874C121.633 10.1422 119.402 9.52194 116.855 9.52194C113.97 9.52194 111.46 10.2441 109.331 11.6791C107.202 13.1187 105.55 15.1786 104.381 17.8635C103.282 20.5483 102.73 23.784 102.73 27.5798C102.73 33.2736 104.038 37.5601 106.65 40.4393C109.331 43.3186 113.042 44.7582 117.783 44.7582C125.682 44.7582 128.371 38.8053 129.14 35.3474L140.661 37.4767L140.666 37.4721Z" fill="#001137"/>
<path d="M50.8779 52.8637V0.921387H63.2339V24.0593C64.9653 22.8001 66.5393 21.3557 67.9559 19.7308C69.3725 18.1059 70.6318 16.3189 71.7336 14.3792C72.8354 12.4394 73.752 10.3654 74.4881 8.16183C75.2242 5.9073 75.7473 3.49073 76.0621 0.921387H89.9134C89.4412 3.64813 88.7051 6.3008 87.7098 8.87014C86.7144 11.3886 85.4552 13.7496 83.9321 15.9532C82.4091 18.1568 80.6776 20.1521 78.7379 21.9344C76.8491 23.7168 74.7751 25.1889 72.5206 26.3417V27.2074C74.5668 27.2074 76.4047 27.4435 78.0296 27.9157C79.7101 28.3369 81.1776 29.0175 82.4368 29.9619C83.696 30.9063 84.7469 32.1933 85.5849 33.8182C86.4228 35.3922 87.0802 37.3088 87.5524 39.5633L90.3069 52.8637H77.0065L75.3538 42.9475C74.9325 40.2716 74.3816 38.1977 73.7011 36.7301C73.0715 35.207 72.178 34.133 71.0253 33.5034C69.8725 32.8738 68.2985 32.559 66.3032 32.559H63.2339V52.8637H50.8779Z" fill="#001137"/>
<path d="M31.855 52.8637V0.921387H44.4471V52.8637H31.855Z" fill="#001137"/>
<path d="M0 52.8637V0.921387H12.356V52.8637H0ZM2.28232 52.8637V42.3179H26.6471V52.8637H2.28232Z" fill="#001137"/>
<path d="M161.21 45.5117C158.446 45.5117 156.372 44.9192 154.99 43.7343C153.607 42.4835 152.916 40.5745 152.916 38.0072C152.916 35.374 153.607 33.465 154.99 32.2801C156.372 31.0293 158.446 30.404 161.21 30.404C164.041 30.404 166.148 31.0293 167.53 32.2801C168.978 33.465 169.702 35.374 169.702 38.0072C169.702 43.0102 166.872 45.5117 161.21 45.5117Z" fill="#001137"/>
<path d="M161.21 22.792C158.446 22.792 156.372 22.1996 154.99 21.0147C153.607 19.7639 152.916 17.8549 152.916 15.2876C152.916 12.6544 153.607 10.7454 154.99 9.56045C156.372 8.3097 158.446 7.68433 161.21 7.68433C164.041 7.68433 166.148 8.3097 167.53 9.56045C168.978 10.7454 169.702 12.6544 169.702 15.2876C169.702 20.2905 166.872 22.792 161.21 22.792Z" fill="#001137"/>
</svg>
