<svg width="18" height="18" viewBox="0 0 18 18" fill="none" xmlns="http://www.w3.org/2000/svg">
<g clip-path="url(#clip0_120524_46468)">
<path d="M9 18C7.42522 18 5.87993 17.5833 4.51168 16.7916L1.0056 18L1.72599 14.2862C0.59623 12.7384 0 10.9165 0 9C0 4.03715 4.03715 0 9 0C13.9628 0 18 4.03715 18 9C18 13.9628 13.9628 18 9 18ZM4.67272 15.3188L4.94441 15.4885C6.16637 16.2543 7.56905 16.66 9 16.66C13.2252 16.66 16.6612 13.224 16.6612 8.99877C16.6612 4.77353 13.224 1.33875 9 1.33875C4.77599 1.33875 1.33875 4.77599 1.33875 9C1.33875 10.7186 1.90179 12.3475 2.9664 13.7084L3.15449 13.9493L2.7611 15.9777L4.67272 15.3188Z" fill="white"/>
<path d="M4.45681 5.54192C4.45681 5.54192 4.98543 4.61869 5.4157 4.56583C5.84597 4.51297 6.4004 4.51297 6.54915 4.79448C6.69913 5.076 7.36666 6.71103 7.36666 6.71103C7.36666 6.71103 7.48099 6.99255 7.30519 7.26546C7.1294 7.53837 6.73355 7.93299 6.73355 7.93299C6.73355 7.93299 6.5135 8.21451 6.73355 8.51324C6.9536 8.81197 7.29413 9.36148 7.99977 10.0659C8.70418 10.7715 10.0565 11.2731 10.0565 11.2731C10.0565 11.2731 10.2495 11.2989 10.3736 11.176C10.4966 11.0531 11.1653 10.2183 11.1653 10.2183C11.1653 10.2183 11.3792 9.94173 11.737 10.104C12.0935 10.2663 13.6363 11.0358 13.6363 11.0358C13.6363 11.0358 13.817 11.1022 13.817 11.3739C13.817 11.6456 13.7064 12.3131 13.4814 12.5381C13.2564 12.7643 12.5963 13.4589 11.6054 13.4589C10.6146 13.4589 8.25547 12.6524 6.99909 11.396C5.74147 10.1384 4.62523 8.8636 4.36215 7.7031C4.09784 6.54261 4.13349 6.01768 4.45804 5.54069L4.45681 5.54192Z" fill="white"/>
</g>
<defs>
<clipPath id="clip0_120524_46468">
<rect width="18" height="18" fill="white"/>
</clipPath>
</defs>
</svg>
